<?xml version="1.0" standalone="no"?>
<svg viewBox="0 0 200 200" xmlns="http://www.w3.org/2000/svg">
  <path fill="#E7F0FF" d="M40.1,-67.7C53.6,-61.6,67.4,-54.2,74.7,-42.8C82,-31.3,82.7,-15.6,82,-0.4C81.3,14.8,79.2,29.7,73.1,43.2C67,56.7,56.9,68.9,44.1,75.8C31.2,82.8,15.6,84.4,0,84.3C-15.6,84.3,-31.1,82.6,-45.5,76.5C-59.8,70.5,-72.9,60.1,-79.7,46.6C-86.5,33.1,-87,16.5,-84.3,1.5C-81.7,-13.5,-75.8,-27,-68.6,-39.7C-61.4,-52.5,-52.8,-64.6,-41.2,-71.8C-29.5,-79,-14.7,-81.3,-0.7,-80.1C13.3,-78.8,26.5,-73.9,40.1,-67.7Z" transform="translate(100 100)" />
</svg>
